Coordinates
version=1
nRows=24
nColumns=24
inDegrees=yes

Units are S.I. units (second, meters, Newtons, ...)
Angles are in degrees.

endheader
time	pelvis_tilt	pelvis_list	pelvis_rotation	pelvis_tx	pelvis_ty	pelvis_tz	hip_flexion_r	hip_adduction_r	hip_rotation_r	knee_angle_r	ankle_angle_r	subtalar_angle_r	mtp_angle_r	hip_flexion_l	hip_adduction_l	hip_rotation_l	knee_angle_l	ankle_angle_l	subtalar_angle_l	mtp_angle_l	lumbar_extension	lumbar_bending	lumbar_rotation
      1.43716667	     -3.50467960	      1.43923207	     -2.06093043	      0.44499356	      1.08243983	      0.25227035	     18.21267640	     -4.50196463	     -5.17105211	    -60.87566039	      5.66208217	     -2.67935841	      2.11928912	     10.19443450	      3.39290710	      0.72099062	    -13.08434843	      9.72692483	      4.02481921	     -3.02124923	    -12.67642361	     -5.43662721	     -2.72765598
      1.44133333	     -3.50202447	      1.32747672	     -1.95530642	      0.44985127	      1.08302886	      0.25173095	     18.57083996	     -4.39149786	     -5.34854534	    -60.22603153	      5.96912166	     -2.47725139	      2.14918777	      9.74607544	      3.31579908	      0.83076433	    -12.75367863	      9.78116727	      4.07644442	     -3.03004708	    -12.63415606	     -5.25292326	     -2.82763708
      1.44550000	     -3.52390343	      1.22523130	     -1.86409767	      0.45470061	      1.08351284	      0.25123405	     18.95822761	     -4.28551174	     -5.51008667	    -59.56744987	      6.26074368	     -2.34455182	      2.16758254	      9.32524218	      3.24223974	      0.92046117	    -12.42213317	      9.83299101	      4.15238028	     -3.03472916	    -12.57314228	     -5.06528786	     -2.88562707
      1.44966667	     -3.50037208	      1.14171283	     -1.75464980	      0.45951994	      1.08402320	      0.25070107	     19.28502338	     -4.21815649	     -5.69979657	    -58.88303391	      6.56301227	     -2.13373142	      2.20395065	      8.85480188	      3.19916051	      1.07518936	    -12.08574477	      9.90508511	      4.13451808	     -3.05070979	    -12.55830256	     -4.91996287	     -3.08501168
      1.45383333	     -3.52914756	      1.03589053	     -1.66491831	      0.46434517	      1.08441440	      0.25022956	     19.66144508	     -4.10854121	     -5.86435323	    -58.16923544	      6.82690283	     -2.06697086	      2.21753500	      8.45364984	      3.11766245	      1.15537605	    -11.77561530	      9.96229546	      4.20285546	     -3.05564563	    -12.48423633	     -4.73841150	     -3.11831835
      1.45800000	     -3.53248104	      0.93467200	     -1.55602810	      0.46915468	      1.08481343	      0.24972584	     19.99590485	     -4.01821258	     -6.05717129	    -57.42397994	      7.07274013	     -1.96085819	      2.24055306	      8.02437644	      3.04873706	      1.30354146	    -11.46385793	     10.05111359	      4.19444161	     -3.07057592	    -12.43702660	     -4.57068159	     -3.27995548
      1.46216667	     -3.54491279	      0.83454973	     -1.46474561	      0.47394409	      1.08514183	      0.24927813	     20.33808051	     -3.91797211	     -6.22626011	    -56.66408141	      7.32085207	     -1.93654668	      2.25159773	      7.61802044	      2.97157443	      1.38573731	    -11.17467012	     10.11665070	      4.23554096	     -3.07836111	    -12.37833542	     -4.40907246	     -3.33533639
      1.46633333	     -3.57118749	      0.75012462	     -1.37395378	      0.47872449	      1.08539376	      0.24883948	     20.69338005	     -3.83863054	     -6.39691693	    -55.89436558	      7.53845695	     -1.92647430	      2.26168479	      7.21949706	      2.91334551	      1.51590443	    -10.86934226	     10.20435440	      4.23257194	     -3.09277317	    -12.31611175	     -4.25491043	     -3.46515335
      1.47050000	     -3.60796805	      0.66609622	     -1.30098700	      0.48349017	      1.08558572	      0.24845104	     21.05643566	     -3.74856587	     -6.54279611	    -55.10769518	      7.77459256	     -1.96313909	      2.26503469	      6.84482205	      2.84715004	      1.58068869	    -10.58691759	     10.27892916	      4.28716151	     -3.09717205	    -12.23871196	     -4.11160062	     -3.49445719
      1.47466667	     -3.64616349	      0.58266191	     -1.22258466	      0.48824183	      1.08572989	      0.24806969	     21.41191986	     -3.66241256	     -6.69722541	    -54.29979809	      7.97805711	     -2.01840456	      2.26512959	      6.47733963	      2.78137775	      1.66144411	    -10.31568072	     10.37721387	      4.32573045	     -3.10097082	    -12.16178731	     -3.97265168	     -3.54551946
      1.47883333	     -3.66218700	      0.50026367	     -1.13105615	      0.49295252	      1.08587821	      0.24768466	     21.73010114	     -3.58078222	     -6.86111437	    -53.46071209	      8.12389568	     -2.12348756	      2.25473518	      6.09145733	      2.72071083	      1.79879445	    -10.05179230	     10.47695869	      4.28457509	     -3.11467234	    -12.11012805	     -3.83119964	     -3.69756085
      1.48300000	     -3.70564483	      0.42539639	     -1.05920399	      0.49766495	      1.08593907	      0.24735536	     22.07710800	     -3.49634260	     -6.99944098	    -52.61447847	      8.32258014	     -2.22526829	      2.24741821	      5.74537930	      2.66000520	      1.86878888	     -9.80762446	     10.56122446	      4.30461671	     -3.12104175	    -12.02984694	     -3.70885333	     -3.73551735
      1.48716667	     -3.73351990	      0.35199254	     -0.99023729	      0.50235123	      1.08598479	      0.24704828	     22.40126878	     -3.41186599	     -7.13279931	    -51.75083838	      8.44898101	     -2.38864520	      2.22763352	      5.37715870	      2.60077148	      1.97411113	     -9.55029171	     10.67145554	      4.29725487	     -3.13198320	    -11.97574479	     -3.58429155	     -3.81919853
      1.49133333	     -3.78802737	      0.27890064	     -0.92178968	      0.50703185	      1.08593754	      0.24675912	     22.74590720	     -3.32376227	     -7.26009571	    -50.87113473	      8.61392866	     -2.53622172	      2.21345001	      5.05648733	      2.53841081	      2.04111245	     -9.33106185	     10.77416676	      4.31470356	     -3.13739651	    -11.88972779	     -3.46489653	     -3.85603089
      1.49550000	     -3.82303393	      0.21327028	     -0.85610501	      0.51168902	      1.08589705	      0.24650172	     23.06334889	     -3.24025671	     -7.37898345	    -49.97529105	      8.73105402	     -2.72606957	      2.19291723	      4.71409761	      2.48214434	      2.12129949	     -9.10769189	     10.88920068	      4.32345253	     -3.14339562	    -11.83227113	     -3.35368959	     -3.90971800
      1.49966667	     -3.85782731	      0.15558582	     -0.79677894	      0.51632344	      1.08579881	      0.24626890	     23.37769222	     -3.16093336	     -7.48506938	    -49.07134759	      8.84543432	     -2.92519455	      2.17031052	      4.37703862	      2.43318313	      2.19854032	     -8.89435634	     11.00853647	      4.33137415	     -3.14880710	    -11.77649539	     -3.25641622	     -3.95896004
      1.50383333	     -3.90679671	      0.11485632	     -0.74740644	      0.52095232	      1.08562291	      0.24607831	     23.70993347	     -3.09543425	     -7.57995021	    -48.17318353	      8.96467656	     -3.11167122	      2.15060370	      4.05384818	      2.39947227	      2.26362316	     -8.67541465	     11.13526897	      4.34734370	     -3.15235593	    -11.71626251	     -3.18369159	     -3.99698112
      1.50800000	     -3.96090518	      0.06087547	     -0.68563065	      0.52556361	      1.08542629	      0.24588466	     24.02785129	     -3.01169259	     -7.66922851	    -47.23430679	      9.03097024	     -3.34149157	      2.12359640	      3.75376184	      2.35128666	      2.34415595	     -8.49405994	     11.26207538	      4.34213008	     -3.15713137	    -11.64100881	     -3.09127895	     -4.04121256
      1.51216667	     -3.99638746	      0.03248252	     -0.63543477	      0.53014758	      1.08520862	      0.24573904	     24.32880200	     -2.94842737	     -7.73680093	    -46.29933961	      9.09707429	     -3.56260566	      2.09257505	      3.43284568	      2.32838110	      2.41780408	     -8.30893138	     11.38998177	      4.33456524	     -3.16266400	    -11.59140499	     -3.03805695	     -4.08843046
      1.51633333	     -4.04698203	      0.00054418	     -0.58711201	      0.53474221	      1.08492639	      0.24561363	     24.63950275	     -2.87992859	     -7.80622056	    -45.35784983	      9.16886617	     -3.76033424	      2.06456300	      3.12887301	      2.29946350	      2.48743794	     -8.12495213	     11.52603949	      4.33367697	     -3.16708010	    -11.53400381	     -2.98087960	     -4.12109436
      1.52050000	     -4.10181476	     -0.01810398	     -0.53851109	      0.53931735	      1.08460069	      0.24550254	     24.94996149	     -2.82132694	     -7.85884430	    -44.40683665	      9.21604899	     -3.96041194	      2.03406761	      2.83742014	      2.28444300	      2.55929837	     -7.95685015	     11.66125702	      4.32466374	     -3.17193836	    -11.47102272	     -2.94423615	     -4.15410721
      1.52466667	     -4.14244307	     -0.03411349	     -0.49363991	      0.54388510	      1.08426359	      0.24541961	     25.23868757	     -2.76029222	     -7.90158818	    -43.44694289	      9.26066039	     -4.14565168	      2.00372665	      2.53091646	      2.27012829	      2.63132124	     -7.78896974	     11.80253285	      4.31685990	     -3.17694655	    -11.42709882	     -2.90791801	     -4.18226980
      1.52883333	     -4.18611796	     -0.04523871	     -0.45099291	      0.54845612	      1.08388617	      0.24535448	     25.52302695	     -2.70037642	     -7.93094011	    -42.47548093	      9.29017316	     -4.31667240	      1.97150727	      2.23015912	      2.26000240	      2.70357205	     -7.62842489	     11.94606079	      4.30898517	     -3.18245568	    -11.37621260	     -2.87900315	     -4.20748588
      1.53300000	     -4.23317509	     -0.03776022	     -0.41528456	      0.55301353	      1.08344151	      0.24532046	     25.81769963	     -2.65880412	     -7.95586712	    -41.52315504	      9.35158389	     -4.43202704	      1.94971381	      1.93399984	      2.26789276	      2.76024075	     -7.46760723	     12.09524165	      4.30670198	     -3.18570955	    -11.34152054	     -2.87956213	     -4.22600265
